<svg xmlns="http://www.w3.org/2000/svg" viewBox="0 0 600 200" preserveAspectRatio="xMidYMid meet" role="img" aria-label="BUD logo">
  <defs>
    <linearGradient id="budGrad" x1="0" x2="1">
      <stop offset="0" stop-color="#1ea7b0"/>
      <stop offset="1" stop-color="#0b6fb8"/>
    </linearGradient>
  </defs>
  <rect width="100%" height="100%" fill="none"/>
  <!-- simplified circular leaf mark -->
  <g transform="translate(20,10)">
    <circle cx="60" cy="60" r="48" fill="url(#budGrad)" />
    <path d="M52 58c6-6 14-14 22-8 4 3 6 9 3 14-6 10-14 10-20 6-6-4-6-12-5-12z" fill="#ffffff" opacity="0.98"/>
    <path d="M100 92c-6 6-14 14-22 8-4-3-6-9-3-14 6-10 14-10 20-6 6 4 6 12 5 12z" fill="#ffffff" opacity="0.06"/>
  </g>
  <!-- Brand wordmark: BUD in bold rounded font-like shapes -->
  <g transform="translate(140,70)" fill="#063a5a">
    <text x="0" y="24" font-family="Inter, system-ui, sans-serif" font-weight="800" font-size="72">BUD</text>
  </g>
</svg>